<?xml version="1.0" encoding="iso-8859-1"?>
<!-- Generator: Adobe Illustrator 19.0.0, SVG Export Plug-In . SVG Version: 6.00 Build 0)  -->
<svg version="1.1" id="Layer_1" xmlns="http://www.w3.org/2000/svg" xmlns:xlink="http://www.w3.org/1999/xlink" x="0px" y="0px"
	 viewBox="0 0 512 512" style="enable-background:new 0 0 512 512;" xml:space="preserve">
<path style="fill:#FFFFFF;" d="M499.184,255.992C458.972,350.549,365.236,416.839,256,416.839S53.028,350.549,12.816,255.992
	C53.028,161.453,146.781,95.163,256,95.163C365.219,95.163,458.972,161.453,499.184,255.992z"/>
<circle style="fill:#80D0E1;" cx="256" cy="256.001" r="85.357"/>
<g>
	<path style="fill:#58595B;" d="M510.977,250.975C467.408,148.537,367.321,82.344,256,82.344S44.594,148.535,1.023,250.975
		c-1.364,3.206-1.364,6.827,0,10.033C44.591,363.458,144.677,429.656,256,429.656c111.326,0,211.411-66.198,254.977-168.648
		C512.341,257.802,512.341,254.181,510.977,250.975z M256,404.022c-99.194,0-188.557-57.921-229.191-148.029
		c40.635-90.098,130-148.014,229.191-148.014c99.193,0,188.557,57.916,229.191,148.012C444.557,346.098,355.194,404.022,256,404.022
		z"/>
	<path style="fill:#58595B;" d="M256,157.825c-54.134,0-98.174,44.041-98.174,98.174s44.041,98.174,98.174,98.174
		s98.174-44.04,98.174-98.174S310.133,157.825,256,157.825z M256,328.541c-39.998,0-72.54-32.542-72.54-72.54
		s32.542-72.54,72.54-72.54s72.54,32.542,72.54,72.54S295.998,328.541,256,328.541z"/>
	<path style="fill:#58595B;" d="M256,203.878c-28.739,0-52.123,23.382-52.123,52.123c0,7.078,5.737,12.817,12.817,12.817
		c7.08,0,12.817-5.739,12.817-12.817c0-14.606,11.882-26.489,26.489-26.489c7.08,0,12.817-5.739,12.817-12.817
		C268.817,209.615,263.078,203.878,256,203.878z"/>
</g>
<g>
</g>
<g>
</g>
<g>
</g>
<g>
</g>
<g>
</g>
<g>
</g>
<g>
</g>
<g>
</g>
<g>
</g>
<g>
</g>
<g>
</g>
<g>
</g>
<g>
</g>
<g>
</g>
<g>
</g>
</svg>
